<svg xmlns="http://www.w3.org/2000/svg" width="640" height="346" viewBox="0 0 640 346">
<rect width="640" height="346" fill="white"/>
<text x="10" y="24" font-family="Helvetica, Arial, sans-serif" font-size="15" font-weight="bold">Drøm mot virkelighet: treffe en hindring innen 10 skritt</text>
<line x1="60" y1="300.0" x2="320" y2="300.0" stroke="#e5e5e5"/>
<text x="54" y="304.0" font-family="Helvetica, Arial, sans-serif" font-size="11" text-anchor="end">0 %</text>
<text x="60.0" y="316" font-family="Helvetica, Arial, sans-serif" font-size="11" text-anchor="middle">0 %</text>
<line x1="60" y1="248.0" x2="320" y2="248.0" stroke="#e5e5e5"/>
<text x="54" y="252.0" font-family="Helvetica, Arial, sans-serif" font-size="11" text-anchor="end">20 %</text>
<text x="112.0" y="316" font-family="Helvetica, Arial, sans-serif" font-size="11" text-anchor="middle">20 %</text>
<line x1="60" y1="196.0" x2="320" y2="196.0" stroke="#e5e5e5"/>
<text x="54" y="200.0" font-family="Helvetica, Arial, sans-serif" font-size="11" text-anchor="end">40 %</text>
<text x="164.0" y="316" font-family="Helvetica, Arial, sans-serif" font-size="11" text-anchor="middle">40 %</text>
<line x1="60" y1="144.0" x2="320" y2="144.0" stroke="#e5e5e5"/>
<text x="54" y="148.0" font-family="Helvetica, Arial, sans-serif" font-size="11" text-anchor="end">60 %</text>
<text x="216.0" y="316" font-family="Helvetica, Arial, sans-serif" font-size="11" text-anchor="middle">60 %</text>
<line x1="60" y1="92.0" x2="320" y2="92.0" stroke="#e5e5e5"/>
<text x="54" y="96.0" font-family="Helvetica, Arial, sans-serif" font-size="11" text-anchor="end">80 %</text>
<text x="268.0" y="316" font-family="Helvetica, Arial, sans-serif" font-size="11" text-anchor="middle">80 %</text>
<line x1="60" y1="40.0" x2="320" y2="40.0" stroke="#e5e5e5"/>
<text x="54" y="44.0" font-family="Helvetica, Arial, sans-serif" font-size="11" text-anchor="end">100 %</text>
<text x="320.0" y="316" font-family="Helvetica, Arial, sans-serif" font-size="11" text-anchor="middle">100 %</text>
<line x1="60" y1="300" x2="320" y2="40" stroke="#999" stroke-dasharray="4 3"/>
<text x="190.0" y="334" font-family="Helvetica, Arial, sans-serif" font-size="12" text-anchor="middle">Drømmen sa</text>
<text x="16" y="170.0" font-family="Helvetica, Arial, sans-serif" font-size="12" text-anchor="middle" transform="rotate(-90 16 170.0)">Det skjedde</text>
<polyline fill="none" stroke="#1f77b4" stroke-width="1.5" points="60.8,284.0 108.4,185.6 157.7,209.6 216.3,126.7 273.4,90.3 313.9,75.1"/>
<circle cx="60.8" cy="284.0" r="7.0" fill="#1f77b4" fill-opacity="0.7"/>
<circle cx="108.4" cy="185.6" r="2.8" fill="#1f77b4" fill-opacity="0.7"/>
<circle cx="157.7" cy="209.6" r="2.8" fill="#1f77b4" fill-opacity="0.7"/>
<circle cx="216.3" cy="126.7" r="2.8" fill="#1f77b4" fill-opacity="0.7"/>
<circle cx="273.4" cy="90.3" r="2.9" fill="#1f77b4" fill-opacity="0.7"/>
<circle cx="313.9" cy="75.1" r="3.0" fill="#1f77b4" fill-opacity="0.7"/>
<circle cx="348" cy="46" r="4" fill="#1f77b4"/>
<text x="358" y="50" font-family="Helvetica, Arial, sans-serif" font-size="12">Steg 4: lært i drømmen</text>
<polyline fill="none" stroke="#ff7f0e" stroke-width="1.5" points="60.6,295.5 112.9,188.6 158.7,161.3 215.4,225.7 277.5,181.8 314.0,54.4"/>
<circle cx="60.6" cy="295.5" r="7.0" fill="#ff7f0e" fill-opacity="0.7"/>
<circle cx="112.9" cy="188.6" r="2.8" fill="#ff7f0e" fill-opacity="0.7"/>
<circle cx="158.7" cy="161.3" r="2.6" fill="#ff7f0e" fill-opacity="0.7"/>
<circle cx="215.4" cy="225.7" r="2.4" fill="#ff7f0e" fill-opacity="0.7"/>
<circle cx="277.5" cy="181.8" r="2.8" fill="#ff7f0e" fill-opacity="0.7"/>
<circle cx="314.0" cy="54.4" r="3.0" fill="#ff7f0e" fill-opacity="0.7"/>
<circle cx="348" cy="66" r="4" fill="#ff7f0e"/>
<text x="358" y="70" font-family="Helvetica, Arial, sans-serif" font-size="12">Steg 4b: iterativ trening</text>
<polyline fill="none" stroke="#2ca02c" stroke-width="1.5" points="63.3,288.8 108.1,232.7 163.6,217.7 213.3,205.8 271.0,155.0 312.6,124.2"/>
<circle cx="63.3" cy="288.8" r="6.6" fill="#2ca02c" fill-opacity="0.7"/>
<circle cx="108.1" cy="232.7" r="4.0" fill="#2ca02c" fill-opacity="0.7"/>
<circle cx="163.6" cy="217.7" r="3.5" fill="#2ca02c" fill-opacity="0.7"/>
<circle cx="213.3" cy="205.8" r="3.5" fill="#2ca02c" fill-opacity="0.7"/>
<circle cx="271.0" cy="155.0" r="3.7" fill="#2ca02c" fill-opacity="0.7"/>
<circle cx="312.6" cy="124.2" r="4.2" fill="#2ca02c" fill-opacity="0.7"/>
<circle cx="348" cy="86" r="4" fill="#2ca02c"/>
<text x="358" y="90" font-family="Helvetica, Arial, sans-serif" font-size="12">Steg 4c: mål-bevisst drøm</text>
<polyline fill="none" stroke="#d62728" stroke-width="1.5" points="69.6,266.4 106.7,250.8 164.0,234.1 216.2,227.6 271.1,197.0 311.4,151.7"/>
<circle cx="69.6" cy="266.4" r="4.2" fill="#d62728" fill-opacity="0.7"/>
<circle cx="106.7" cy="250.8" r="4.2" fill="#d62728" fill-opacity="0.7"/>
<circle cx="164.0" cy="234.1" r="4.0" fill="#d62728" fill-opacity="0.7"/>
<circle cx="216.2" cy="227.6" r="4.0" fill="#d62728" fill-opacity="0.7"/>
<circle cx="271.1" cy="197.0" r="4.4" fill="#d62728" fill-opacity="0.7"/>
<circle cx="311.4" cy="151.7" r="5.0" fill="#d62728" fill-opacity="0.7"/>
<circle cx="348" cy="106" r="4" fill="#d62728"/>
<text x="358" y="110" font-family="Helvetica, Arial, sans-serif" font-size="12">Steg 4d: bedre søk</text>
<polyline fill="none" stroke="#9467bd" stroke-width="1.5" points="70.8,282.2 106.9,268.8 160.0,240.5 214.0,226.6 263.1,194.6 308.8,110.9"/>
<circle cx="70.8" cy="282.2" r="6.3" fill="#9467bd" fill-opacity="0.7"/>
<circle cx="106.9" cy="268.8" r="5.8" fill="#9467bd" fill-opacity="0.7"/>
<circle cx="160.0" cy="240.5" r="4.3" fill="#9467bd" fill-opacity="0.7"/>
<circle cx="214.0" cy="226.6" r="3.5" fill="#9467bd" fill-opacity="0.7"/>
<circle cx="263.1" cy="194.6" r="3.0" fill="#9467bd" fill-opacity="0.7"/>
<circle cx="308.8" cy="110.9" r="2.6" fill="#9467bd" fill-opacity="0.7"/>
<circle cx="348" cy="126" r="4" fill="#9467bd"/>
<text x="358" y="130" font-family="Helvetica, Arial, sans-serif" font-size="12">Steg 4e: unngå hindringer</text>
<polyline fill="none" stroke="#8c564b" stroke-width="1.5" points="67.4,282.9 110.4,276.8 162.7,244.8 215.6,262.9 271.0,243.5 311.5,211.9"/>
<circle cx="67.4" cy="282.9" r="4.2" fill="#8c564b" fill-opacity="0.7"/>
<circle cx="110.4" cy="276.8" r="3.7" fill="#8c564b" fill-opacity="0.7"/>
<circle cx="162.7" cy="244.8" r="3.5" fill="#8c564b" fill-opacity="0.7"/>
<circle cx="215.6" cy="262.9" r="3.3" fill="#8c564b" fill-opacity="0.7"/>
<circle cx="271.0" cy="243.5" r="3.6" fill="#8c564b" fill-opacity="0.7"/>
<circle cx="311.5" cy="211.9" r="3.9" fill="#8c564b" fill-opacity="0.7"/>
<circle cx="348" cy="146" r="4" fill="#8c564b"/>
<text x="358" y="150" font-family="Helvetica, Arial, sans-serif" font-size="12">Håndlaget på øyet (diagnostikk)</text>
<polyline fill="none" stroke="#e377c2" stroke-width="1.5" points="66.1,291.7 107.3,266.5 161.2,260.2 214.1,255.6 263.2,227.8 308.4,126.7"/>
<circle cx="66.1" cy="291.7" r="7.0" fill="#e377c2" fill-opacity="0.7"/>
<circle cx="107.3" cy="266.5" r="4.9" fill="#e377c2" fill-opacity="0.7"/>
<circle cx="161.2" cy="260.2" r="3.6" fill="#e377c2" fill-opacity="0.7"/>
<circle cx="214.1" cy="255.6" r="3.1" fill="#e377c2" fill-opacity="0.7"/>
<circle cx="263.2" cy="227.8" r="2.7" fill="#e377c2" fill-opacity="0.7"/>
<circle cx="308.4" cy="126.7" r="2.3" fill="#e377c2" fill-opacity="0.7"/>
<circle cx="348" cy="166" r="4" fill="#e377c2"/>
<text x="358" y="170" font-family="Helvetica, Arial, sans-serif" font-size="12">Steg 6: syn</text>
<polyline fill="none" stroke="#7f7f7f" stroke-width="1.5" points="64.6,291.2 105.0,274.6 160.6,291.6 213.5,269.4 267.8,235.0 311.9,274.0"/>
<circle cx="64.6" cy="291.2" r="6.4" fill="#7f7f7f" fill-opacity="0.7"/>
<circle cx="105.0" cy="274.6" r="4.1" fill="#7f7f7f" fill-opacity="0.7"/>
<circle cx="160.6" cy="291.6" r="3.3" fill="#7f7f7f" fill-opacity="0.7"/>
<circle cx="213.5" cy="269.4" r="2.7" fill="#7f7f7f" fill-opacity="0.7"/>
<circle cx="267.8" cy="235.0" r="2.6" fill="#7f7f7f" fill-opacity="0.7"/>
<circle cx="311.9" cy="274.0" r="2.5" fill="#7f7f7f" fill-opacity="0.7"/>
<circle cx="348" cy="186" r="4" fill="#7f7f7f"/>
<text x="358" y="190" font-family="Helvetica, Arial, sans-serif" font-size="12">Steg 7: drømmen ser</text>
</svg>
