<svg xmlns="http://www.w3.org/2000/svg" width="640" height="346" viewBox="0 0 640 346">
<rect width="640" height="346" fill="white"/>
<text x="10" y="24" font-family="Helvetica, Arial, sans-serif" font-size="15" font-weight="bold">Drøm mot virkelighet: nå målet innen 10 skritt</text>
<line x1="60" y1="300.0" x2="320" y2="300.0" stroke="#e5e5e5"/>
<text x="54" y="304.0" font-family="Helvetica, Arial, sans-serif" font-size="11" text-anchor="end">0 %</text>
<text x="60.0" y="316" font-family="Helvetica, Arial, sans-serif" font-size="11" text-anchor="middle">0 %</text>
<line x1="60" y1="248.0" x2="320" y2="248.0" stroke="#e5e5e5"/>
<text x="54" y="252.0" font-family="Helvetica, Arial, sans-serif" font-size="11" text-anchor="end">20 %</text>
<text x="112.0" y="316" font-family="Helvetica, Arial, sans-serif" font-size="11" text-anchor="middle">20 %</text>
<line x1="60" y1="196.0" x2="320" y2="196.0" stroke="#e5e5e5"/>
<text x="54" y="200.0" font-family="Helvetica, Arial, sans-serif" font-size="11" text-anchor="end">40 %</text>
<text x="164.0" y="316" font-family="Helvetica, Arial, sans-serif" font-size="11" text-anchor="middle">40 %</text>
<line x1="60" y1="144.0" x2="320" y2="144.0" stroke="#e5e5e5"/>
<text x="54" y="148.0" font-family="Helvetica, Arial, sans-serif" font-size="11" text-anchor="end">60 %</text>
<text x="216.0" y="316" font-family="Helvetica, Arial, sans-serif" font-size="11" text-anchor="middle">60 %</text>
<line x1="60" y1="92.0" x2="320" y2="92.0" stroke="#e5e5e5"/>
<text x="54" y="96.0" font-family="Helvetica, Arial, sans-serif" font-size="11" text-anchor="end">80 %</text>
<text x="268.0" y="316" font-family="Helvetica, Arial, sans-serif" font-size="11" text-anchor="middle">80 %</text>
<line x1="60" y1="40.0" x2="320" y2="40.0" stroke="#e5e5e5"/>
<text x="54" y="44.0" font-family="Helvetica, Arial, sans-serif" font-size="11" text-anchor="end">100 %</text>
<text x="320.0" y="316" font-family="Helvetica, Arial, sans-serif" font-size="11" text-anchor="middle">100 %</text>
<line x1="60" y1="300" x2="320" y2="40" stroke="#999" stroke-dasharray="4 3"/>
<text x="190.0" y="334" font-family="Helvetica, Arial, sans-serif" font-size="12" text-anchor="middle">Drømmen sa</text>
<text x="16" y="170.0" font-family="Helvetica, Arial, sans-serif" font-size="12" text-anchor="middle" transform="rotate(-90 16 170.0)">Det skjedde</text>
<polyline fill="none" stroke="#1f77b4" stroke-width="1.5" points="61.0,295.9 107.7,288.0 162.0,277.7 215.2,280.0 271.1,276.4 313.6,278.0"/>
<circle cx="61.0" cy="295.9" r="7.0" fill="#1f77b4" fill-opacity="0.7"/>
<circle cx="107.7" cy="288.0" r="3.3" fill="#1f77b4" fill-opacity="0.7"/>
<circle cx="162.0" cy="277.7" r="3.0" fill="#1f77b4" fill-opacity="0.7"/>
<circle cx="215.2" cy="280.0" r="2.8" fill="#1f77b4" fill-opacity="0.7"/>
<circle cx="271.1" cy="276.4" r="3.0" fill="#1f77b4" fill-opacity="0.7"/>
<circle cx="313.6" cy="278.0" r="3.3" fill="#1f77b4" fill-opacity="0.7"/>
<circle cx="348" cy="46" r="4" fill="#1f77b4"/>
<text x="358" y="50" font-family="Helvetica, Arial, sans-serif" font-size="12">Steg 4: lært i drømmen</text>
<polyline fill="none" stroke="#ff7f0e" stroke-width="1.5" points="60.7,299.2 106.4,257.8 163.4,300.0 221.0,300.0 272.1,276.4 307.8,281.4"/>
<circle cx="60.7" cy="299.2" r="7.0" fill="#ff7f0e" fill-opacity="0.7"/>
<circle cx="106.4" cy="257.8" r="3.0" fill="#ff7f0e" fill-opacity="0.7"/>
<circle cx="163.4" cy="300.0" r="2.7" fill="#ff7f0e" fill-opacity="0.7"/>
<circle cx="221.0" cy="300.0" r="2.5" fill="#ff7f0e" fill-opacity="0.7"/>
<circle cx="272.1" cy="276.4" r="2.6" fill="#ff7f0e" fill-opacity="0.7"/>
<circle cx="307.8" cy="281.4" r="2.6" fill="#ff7f0e" fill-opacity="0.7"/>
<circle cx="348" cy="66" r="4" fill="#ff7f0e"/>
<text x="358" y="70" font-family="Helvetica, Arial, sans-serif" font-size="12">Steg 4b: iterativ trening</text>
<polyline fill="none" stroke="#2ca02c" stroke-width="1.5" points="62.3,295.5 104.1,284.3 165.1,284.7 214.2,279.5 266.7,251.9 309.1,217.0"/>
<circle cx="62.3" cy="295.5" r="7.0" fill="#2ca02c" fill-opacity="0.7"/>
<circle cx="104.1" cy="284.3" r="3.8" fill="#2ca02c" fill-opacity="0.7"/>
<circle cx="165.1" cy="284.7" r="3.2" fill="#2ca02c" fill-opacity="0.7"/>
<circle cx="214.2" cy="279.5" r="3.0" fill="#2ca02c" fill-opacity="0.7"/>
<circle cx="266.7" cy="251.9" r="3.2" fill="#2ca02c" fill-opacity="0.7"/>
<circle cx="309.1" cy="217.0" r="3.1" fill="#2ca02c" fill-opacity="0.7"/>
<circle cx="348" cy="86" r="4" fill="#2ca02c"/>
<text x="358" y="90" font-family="Helvetica, Arial, sans-serif" font-size="12">Steg 4c: mål-bevisst drøm</text>
<polyline fill="none" stroke="#d62728" stroke-width="1.5" points="67.1,204.6 108.5,166.4 164.9,160.9 215.4,133.1 272.2,135.2 309.4,100.7"/>
<circle cx="67.1" cy="204.6" r="5.7" fill="#d62728" fill-opacity="0.7"/>
<circle cx="108.5" cy="166.4" r="4.4" fill="#d62728" fill-opacity="0.7"/>
<circle cx="164.9" cy="160.9" r="3.8" fill="#d62728" fill-opacity="0.7"/>
<circle cx="215.4" cy="133.1" r="3.6" fill="#d62728" fill-opacity="0.7"/>
<circle cx="272.2" cy="135.2" r="3.8" fill="#d62728" fill-opacity="0.7"/>
<circle cx="309.4" cy="100.7" r="3.7" fill="#d62728" fill-opacity="0.7"/>
<circle cx="348" cy="106" r="4" fill="#d62728"/>
<text x="358" y="110" font-family="Helvetica, Arial, sans-serif" font-size="12">Steg 4d: bedre søk</text>
<polyline fill="none" stroke="#9467bd" stroke-width="1.5" points="64.5,246.9 108.9,228.0 164.4,203.6 221.1,228.0 271.9,193.1 308.8,137.2"/>
<circle cx="64.5" cy="246.9" r="6.4" fill="#9467bd" fill-opacity="0.7"/>
<circle cx="108.9" cy="228.0" r="4.1" fill="#9467bd" fill-opacity="0.7"/>
<circle cx="164.4" cy="203.6" r="3.8" fill="#9467bd" fill-opacity="0.7"/>
<circle cx="221.1" cy="228.0" r="3.8" fill="#9467bd" fill-opacity="0.7"/>
<circle cx="271.9" cy="193.1" r="4.3" fill="#9467bd" fill-opacity="0.7"/>
<circle cx="308.8" cy="137.2" r="4.5" fill="#9467bd" fill-opacity="0.7"/>
<circle cx="348" cy="126" r="4" fill="#9467bd"/>
<text x="358" y="130" font-family="Helvetica, Arial, sans-serif" font-size="12">Steg 4e: unngå hindringer</text>
<polyline fill="none" stroke="#8c564b" stroke-width="1.5" points="65.3,145.0 109.5,118.3 163.3,92.0 214.4,105.0 268.2,81.6 309.4,69.4"/>
<circle cx="65.3" cy="145.0" r="5.0" fill="#8c564b" fill-opacity="0.7"/>
<circle cx="109.5" cy="118.3" r="3.6" fill="#8c564b" fill-opacity="0.7"/>
<circle cx="163.3" cy="92.0" r="3.2" fill="#8c564b" fill-opacity="0.7"/>
<circle cx="214.4" cy="105.0" r="3.3" fill="#8c564b" fill-opacity="0.7"/>
<circle cx="268.2" cy="81.6" r="3.2" fill="#8c564b" fill-opacity="0.7"/>
<circle cx="309.4" cy="69.4" r="3.3" fill="#8c564b" fill-opacity="0.7"/>
<circle cx="348" cy="146" r="4" fill="#8c564b"/>
<text x="358" y="150" font-family="Helvetica, Arial, sans-serif" font-size="12">Håndlaget på øyet (diagnostikk)</text>
<polyline fill="none" stroke="#e377c2" stroke-width="1.5" points="62.8,269.9 110.4,235.0 161.2,221.1 215.4,228.7 270.3,206.9 310.5,167.8"/>
<circle cx="62.8" cy="269.9" r="7.0" fill="#e377c2" fill-opacity="0.7"/>
<circle cx="110.4" cy="235.0" r="3.6" fill="#e377c2" fill-opacity="0.7"/>
<circle cx="161.2" cy="221.1" r="3.2" fill="#e377c2" fill-opacity="0.7"/>
<circle cx="215.4" cy="228.7" r="3.3" fill="#e377c2" fill-opacity="0.7"/>
<circle cx="270.3" cy="206.9" r="3.6" fill="#e377c2" fill-opacity="0.7"/>
<circle cx="310.5" cy="167.8" r="3.8" fill="#e377c2" fill-opacity="0.7"/>
<circle cx="348" cy="166" r="4" fill="#e377c2"/>
<text x="358" y="170" font-family="Helvetica, Arial, sans-serif" font-size="12">Steg 6: syn</text>
<polyline fill="none" stroke="#7f7f7f" stroke-width="1.5" points="61.8,173.7 106.8,266.1 166.4,126.7 205.0,196.0 280.5,110.0 317.4,84.6"/>
<circle cx="61.8" cy="173.7" r="5.3" fill="#7f7f7f" fill-opacity="0.7"/>
<circle cx="106.8" cy="266.1" r="2.8" fill="#7f7f7f" fill-opacity="0.7"/>
<circle cx="166.4" cy="126.7" r="2.5" fill="#7f7f7f" fill-opacity="0.7"/>
<circle cx="205.0" cy="196.0" r="2.5" fill="#7f7f7f" fill-opacity="0.7"/>
<circle cx="280.5" cy="110.0" r="2.8" fill="#7f7f7f" fill-opacity="0.7"/>
<circle cx="317.4" cy="84.6" r="5.8" fill="#7f7f7f" fill-opacity="0.7"/>
<circle cx="348" cy="186" r="4" fill="#7f7f7f"/>
<text x="358" y="190" font-family="Helvetica, Arial, sans-serif" font-size="12">Steg 7: drømmen ser</text>
<polyline fill="none" stroke="#17becf" stroke-width="1.5" points="65.5,196.0 114.6,267.5 172.6,242.2 225.0,131.8 276.4,65.4 318.0,46.8"/>
<circle cx="65.5" cy="196.0" r="2.6" fill="#17becf" fill-opacity="0.7"/>
<circle cx="114.6" cy="267.5" r="2.5" fill="#17becf" fill-opacity="0.7"/>
<circle cx="172.6" cy="242.2" r="2.5" fill="#17becf" fill-opacity="0.7"/>
<circle cx="225.0" cy="131.8" r="2.7" fill="#17becf" fill-opacity="0.7"/>
<circle cx="276.4" cy="65.4" r="3.1" fill="#17becf" fill-opacity="0.7"/>
<circle cx="318.0" cy="46.8" r="6.7" fill="#17becf" fill-opacity="0.7"/>
<circle cx="348" cy="206" r="4" fill="#17becf"/>
<text x="358" y="210" font-family="Helvetica, Arial, sans-serif" font-size="12">Steg 7 + sporing, håndlagt besøksvekt (diagnostikk)</text>
<polyline fill="none" stroke="#1f77b4" stroke-width="1.5" points="64.3,207.1 109.6,202.5 157.8,126.7 218.4,161.3 274.6,74.2 317.8,46.1"/>
<circle cx="64.3" cy="207.1" r="2.6" fill="#1f77b4" fill-opacity="0.7"/>
<circle cx="109.6" cy="202.5" r="2.5" fill="#1f77b4" fill-opacity="0.7"/>
<circle cx="157.8" cy="126.7" r="2.4" fill="#1f77b4" fill-opacity="0.7"/>
<circle cx="218.4" cy="161.3" r="2.6" fill="#1f77b4" fill-opacity="0.7"/>
<circle cx="274.6" cy="74.2" r="3.0" fill="#1f77b4" fill-opacity="0.7"/>
<circle cx="317.8" cy="46.1" r="6.9" fill="#1f77b4" fill-opacity="0.7"/>
<circle cx="348" cy="226" r="4" fill="#1f77b4"/>
<text x="358" y="230" font-family="Helvetica, Arial, sans-serif" font-size="12">Steg 8: sporing</text>
</svg>
