<svg xmlns="http://www.w3.org/2000/svg" width="820" height="350" viewBox="0 0 820 350">
<rect width="820" height="350" fill="white"/>
<text x="10" y="24" font-family="Helvetica, Arial, sans-serif" font-size="15" font-weight="bold">Andel som når målet, etter avstand</text>
<line x1="60" y1="300.0" x2="480" y2="300.0" stroke="#e5e5e5"/>
<text x="54" y="304.0" font-family="Helvetica, Arial, sans-serif" font-size="11" text-anchor="end">0 %</text>
<line x1="60" y1="248.0" x2="480" y2="248.0" stroke="#e5e5e5"/>
<text x="54" y="252.0" font-family="Helvetica, Arial, sans-serif" font-size="11" text-anchor="end">20 %</text>
<line x1="60" y1="196.0" x2="480" y2="196.0" stroke="#e5e5e5"/>
<text x="54" y="200.0" font-family="Helvetica, Arial, sans-serif" font-size="11" text-anchor="end">40 %</text>
<line x1="60" y1="144.0" x2="480" y2="144.0" stroke="#e5e5e5"/>
<text x="54" y="148.0" font-family="Helvetica, Arial, sans-serif" font-size="11" text-anchor="end">60 %</text>
<line x1="60" y1="92.0" x2="480" y2="92.0" stroke="#e5e5e5"/>
<text x="54" y="96.0" font-family="Helvetica, Arial, sans-serif" font-size="11" text-anchor="end">80 %</text>
<line x1="60" y1="40.0" x2="480" y2="40.0" stroke="#e5e5e5"/>
<text x="54" y="44.0" font-family="Helvetica, Arial, sans-serif" font-size="11" text-anchor="end">100 %</text>
<text x="112.5" y="318" font-family="Helvetica, Arial, sans-serif" font-size="11" text-anchor="middle">1–3</text>
<text x="217.5" y="318" font-family="Helvetica, Arial, sans-serif" font-size="11" text-anchor="middle">4–5</text>
<text x="322.5" y="318" font-family="Helvetica, Arial, sans-serif" font-size="11" text-anchor="middle">6–7</text>
<text x="427.5" y="318" font-family="Helvetica, Arial, sans-serif" font-size="11" text-anchor="middle">8+</text>
<text x="270.0" y="336" font-family="Helvetica, Arial, sans-serif" font-size="12" text-anchor="middle">Korteste vei til målet (skritt)</text>
<polyline fill="none" stroke="#1f77b4" stroke-width="2" points="112.5,240.2 217.5,278.4 322.5,290.1 427.5,292.8"/>
<line x1="112.5" y1="248.9" x2="112.5" y2="230.6" stroke="#1f77b4" stroke-opacity="0.5"/>
<circle cx="112.5" cy="240.2" r="3" fill="#1f77b4"/>
<line x1="217.5" y1="283.9" x2="217.5" y2="271.3" stroke="#1f77b4" stroke-opacity="0.5"/>
<circle cx="217.5" cy="278.4" r="3" fill="#1f77b4"/>
<line x1="322.5" y1="293.7" x2="322.5" y2="284.6" stroke="#1f77b4" stroke-opacity="0.5"/>
<circle cx="322.5" cy="290.1" r="3" fill="#1f77b4"/>
<line x1="427.5" y1="295.8" x2="427.5" y2="287.9" stroke="#1f77b4" stroke-opacity="0.5"/>
<circle cx="427.5" cy="292.8" r="3" fill="#1f77b4"/>
<line x1="500" y1="46" x2="520" y2="46" stroke="#1f77b4" stroke-width="2"/>
<text x="526" y="50" font-family="Helvetica, Arial, sans-serif" font-size="12">Tilfeldig</text>
<polyline fill="none" stroke="#ff7f0e" stroke-width="2" points="112.5,60.9 217.5,130.4 322.5,178.5 427.5,224.9"/>
<line x1="112.5" y1="67.6" x2="112.5" y2="55.7" stroke="#ff7f0e" stroke-opacity="0.5"/>
<circle cx="112.5" cy="60.9" r="3" fill="#ff7f0e"/>
<line x1="217.5" y1="141.5" x2="217.5" y2="120.0" stroke="#ff7f0e" stroke-opacity="0.5"/>
<circle cx="217.5" cy="130.4" r="3" fill="#ff7f0e"/>
<line x1="322.5" y1="190.0" x2="322.5" y2="166.8" stroke="#ff7f0e" stroke-opacity="0.5"/>
<circle cx="322.5" cy="178.5" r="3" fill="#ff7f0e"/>
<line x1="427.5" y1="235.1" x2="427.5" y2="213.9" stroke="#ff7f0e" stroke-opacity="0.5"/>
<circle cx="427.5" cy="224.9" r="3" fill="#ff7f0e"/>
<line x1="500" y1="66" x2="520" y2="66" stroke="#ff7f0e" stroke-width="2"/>
<text x="526" y="70" font-family="Helvetica, Arial, sans-serif" font-size="12">Rett mot målet (juks)</text>
<polyline fill="none" stroke="#2ca02c" stroke-width="2" points="112.5,40.5 217.5,42.1 322.5,43.3 427.5,48.3"/>
<line x1="112.5" y1="42.7" x2="112.5" y2="40.1" stroke="#2ca02c" stroke-opacity="0.5"/>
<circle cx="112.5" cy="40.5" r="3" fill="#2ca02c"/>
<line x1="217.5" y1="45.2" x2="217.5" y2="40.8" stroke="#2ca02c" stroke-opacity="0.5"/>
<circle cx="217.5" cy="42.1" r="3" fill="#2ca02c"/>
<line x1="322.5" y1="47.1" x2="322.5" y2="41.5" stroke="#2ca02c" stroke-opacity="0.5"/>
<circle cx="322.5" cy="43.3" r="3" fill="#2ca02c"/>
<line x1="427.5" y1="53.5" x2="427.5" y2="45.0" stroke="#2ca02c" stroke-opacity="0.5"/>
<circle cx="427.5" cy="48.3" r="3" fill="#2ca02c"/>
<line x1="500" y1="86" x2="520" y2="86" stroke="#2ca02c" stroke-width="2"/>
<text x="526" y="90" font-family="Helvetica, Arial, sans-serif" font-size="12">Rett mot målet, unngår hindringer (juks)</text>
<polyline fill="none" stroke="#d62728" stroke-width="2" points="112.5,56.1 217.5,74.9 322.5,113.3 427.5,147.6"/>
<line x1="112.5" y1="62.2" x2="112.5" y2="51.6" stroke="#d62728" stroke-opacity="0.5"/>
<circle cx="112.5" cy="56.1" r="3" fill="#d62728"/>
<line x1="217.5" y1="83.4" x2="217.5" y2="67.9" stroke="#d62728" stroke-opacity="0.5"/>
<circle cx="217.5" cy="74.9" r="3" fill="#d62728"/>
<line x1="322.5" y1="124.3" x2="322.5" y2="103.3" stroke="#d62728" stroke-opacity="0.5"/>
<circle cx="322.5" cy="113.3" r="3" fill="#d62728"/>
<line x1="427.5" y1="159.3" x2="427.5" y2="136.3" stroke="#d62728" stroke-opacity="0.5"/>
<circle cx="427.5" cy="147.6" r="3" fill="#d62728"/>
<line x1="500" y1="106" x2="520" y2="106" stroke="#d62728" stroke-width="2"/>
<text x="526" y="110" font-family="Helvetica, Arial, sans-serif" font-size="12">Steg 8: sporing</text>
<polyline fill="none" stroke="#9467bd" stroke-width="2" points="112.5,50.9 217.5,70.8 322.5,96.4 427.5,124.5"/>
<line x1="112.5" y1="56.2" x2="112.5" y2="47.3" stroke="#9467bd" stroke-opacity="0.5"/>
<circle cx="112.5" cy="50.9" r="3" fill="#9467bd"/>
<line x1="217.5" y1="78.9" x2="217.5" y2="64.2" stroke="#9467bd" stroke-opacity="0.5"/>
<circle cx="217.5" cy="70.8" r="3" fill="#9467bd"/>
<line x1="322.5" y1="106.6" x2="322.5" y2="87.4" stroke="#9467bd" stroke-opacity="0.5"/>
<circle cx="322.5" cy="96.4" r="3" fill="#9467bd"/>
<line x1="427.5" y1="135.8" x2="427.5" y2="113.9" stroke="#9467bd" stroke-opacity="0.5"/>
<circle cx="427.5" cy="124.5" r="3" fill="#9467bd"/>
<line x1="500" y1="126" x2="520" y2="126" stroke="#9467bd" stroke-width="2"/>
<text x="526" y="130" font-family="Helvetica, Arial, sans-serif" font-size="12">Steg 10: bevegelige hindringer</text>
<polyline fill="none" stroke="#8c564b" stroke-width="2" points="112.5,47.6 217.5,57.0 322.5,71.7 427.5,93.5"/>
<line x1="112.5" y1="52.2" x2="112.5" y2="44.7" stroke="#8c564b" stroke-opacity="0.5"/>
<circle cx="112.5" cy="47.6" r="3" fill="#8c564b"/>
<line x1="217.5" y1="63.4" x2="217.5" y2="52.2" stroke="#8c564b" stroke-opacity="0.5"/>
<circle cx="217.5" cy="57.0" r="3" fill="#8c564b"/>
<line x1="322.5" y1="80.2" x2="322.5" y2="64.9" stroke="#8c564b" stroke-opacity="0.5"/>
<circle cx="322.5" cy="71.7" r="3" fill="#8c564b"/>
<line x1="427.5" y1="103.6" x2="427.5" y2="84.7" stroke="#8c564b" stroke-opacity="0.5"/>
<circle cx="427.5" cy="93.5" r="3" fill="#8c564b"/>
<line x1="500" y1="146" x2="520" y2="146" stroke="#8c564b" stroke-width="2"/>
<text x="526" y="150" font-family="Helvetica, Arial, sans-serif" font-size="12">Steg 11: øyet leser hindringene</text>
</svg>
